<svg width="600" height="400" viewBox="0 0 600 400" xmlns="http://www.w3.org/2000/svg">
<rect x="0" y="0" width="600" height="400" opacity="1" fill="#FFFFFF" stroke="none"/>
<line opacity="1" stroke="#FFFFFF" stroke-width="1" x1="60" y1="339" x2="60" y2="20"/>
<line opacity="1" stroke="#FFFFFF" stroke-width="1" x1="65" y1="339" x2="65" y2="20"/>
<line opacity="1" stroke="#FFFFFF" stroke-width="1" x1="70" y1="339" x2="70" y2="20"/>
<line opacity="1" stroke="#FFFFFF" stroke-width="1" x1="75" y1="339" x2="75" y2="20"/>
<line opacity="1" stroke="#FFFFFF" stroke-width="1" x1="80" y1="339" x2="80" y2="20"/>
<line opacity="1" stroke="#FFFFFF" stroke-width="1" x1="85" y1="339" x2="85" y2="20"/>
<line opacity="1" stroke="#FFFFFF" stroke-width="1" x1="91" y1="339" x2="91" y2="20"/>
<line opacity="1" stroke="#FFFFFF" stroke-width="1" x1="96" y1="339" x2="96" y2="20"/>
<line opacity="1" stroke="#FFFFFF" stroke-width="1" x1="101" y1="339" x2="101" y2="20"/>
<line opacity="1" stroke="#FFFFFF" stroke-width="1" x1="106" y1="339" x2="106" y2="20"/>
<line opacity="1" stroke="#FFFFFF" stroke-width="1" x1="111" y1="339" x2="111" y2="20"/>
<line opacity="1" stroke="#FFFFFF" stroke-width="1" x1="117" y1="339" x2="117" y2="20"/>
<line opacity="1" stroke="#FFFFFF" stroke-width="1" x1="122" y1="339" x2="122" y2="20"/>
<line opacity="1" stroke="#FFFFFF" stroke-width="1" x1="127" y1="339" x2="127" y2="20"/>
<line opacity="1" stroke="#FFFFFF" stroke-width="1" x1="132" y1="339" x2="132" y2="20"/>
<line opacity="1" stroke="#FFFFFF" stroke-width="1" x1="137" y1="339" x2="137" y2="20"/>
<line opacity="1" stroke="#FFFFFF" stroke-width="1" x1="143" y1="339" x2="143" y2="20"/>
<line opacity="1" stroke="#FFFFFF" stroke-width="1" x1="148" y1="339" x2="148" y2="20"/>
<line opacity="1" stroke="#FFFFFF" stroke-width="1" x1="153" y1="339" x2="153" y2="20"/>
<line opacity="1" stroke="#FFFFFF" stroke-width="1" x1="158" y1="339" x2="158" y2="20"/>
<line opacity="1" stroke="#FFFFFF" stroke-width="1" x1="163" y1="339" x2="163" y2="20"/>
<line opacity="1" stroke="#FFFFFF" stroke-width="1" x1="168" y1="339" x2="168" y2="20"/>
<line opacity="1" stroke="#FFFFFF" stroke-width="1" x1="174" y1="339" x2="174" y2="20"/>
<line opacity="1" stroke="#FFFFFF" stroke-width="1" x1="179" y1="339" x2="179" y2="20"/>
<line opacity="1" stroke="#FFFFFF" stroke-width="1" x1="184" y1="339" x2="184" y2="20"/>
<line opacity="1" stroke="#FFFFFF" stroke-width="1" x1="189" y1="339" x2="189" y2="20"/>
<line opacity="1" stroke="#FFFFFF" stroke-width="1" x1="194" y1="339" x2="194" y2="20"/>
<line opacity="1" stroke="#FFFFFF" stroke-width="1" x1="200" y1="339" x2="200" y2="20"/>
<line opacity="1" stroke="#FFFFFF" stroke-width="1" x1="205" y1="339" x2="205" y2="20"/>
<line opacity="1" stroke="#FFFFFF" stroke-width="1" x1="210" y1="339" x2="210" y2="20"/>
<line opacity="1" stroke="#FFFFFF" stroke-width="1" x1="215" y1="339" x2="215" y2="20"/>
<line opacity="1" stroke="#FFFFFF" stroke-width="1" x1="220" y1="339" x2="220" y2="20"/>
<line opacity="1" stroke="#FFFFFF" stroke-width="1" x1="226" y1="339" x2="226" y2="20"/>
<line opacity="1" stroke="#FFFFFF" stroke-width="1" x1="231" y1="339" x2="231" y2="20"/>
<line opacity="1" stroke="#FFFFFF" stroke-width="1" x1="236" y1="339" x2="236" y2="20"/>
<line opacity="1" stroke="#FFFFFF" stroke-width="1" x1="241" y1="339" x2="241" y2="20"/>
<line opacity="1" stroke="#FFFFFF" stroke-width="1" x1="246" y1="339" x2="246" y2="20"/>
<line opacity="1" stroke="#FFFFFF" stroke-width="1" x1="252" y1="339" x2="252" y2="20"/>
<line opacity="1" stroke="#FFFFFF" stroke-width="1" x1="257" y1="339" x2="257" y2="20"/>
<line opacity="1" stroke="#FFFFFF" stroke-width="1" x1="262" y1="339" x2="262" y2="20"/>
<line opacity="1" stroke="#FFFFFF" stroke-width="1" x1="267" y1="339" x2="267" y2="20"/>
<line opacity="1" stroke="#FFFFFF" stroke-width="1" x1="272" y1="339" x2="272" y2="20"/>
<line opacity="1" stroke="#FFFFFF" stroke-width="1" x1="277" y1="339" x2="277" y2="20"/>
<line opacity="1" stroke="#FFFFFF" stroke-width="1" x1="283" y1="339" x2="283" y2="20"/>
<line opacity="1" stroke="#FFFFFF" stroke-width="1" x1="288" y1="339" x2="288" y2="20"/>
<line opacity="1" stroke="#FFFFFF" stroke-width="1" x1="293" y1="339" x2="293" y2="20"/>
<line opacity="1" stroke="#FFFFFF" stroke-width="1" x1="298" y1="339" x2="298" y2="20"/>
<line opacity="1" stroke="#FFFFFF" stroke-width="1" x1="303" y1="339" x2="303" y2="20"/>
<line opacity="1" stroke="#FFFFFF" stroke-width="1" x1="309" y1="339" x2="309" y2="20"/>
<line opacity="1" stroke="#FFFFFF" stroke-width="1" x1="314" y1="339" x2="314" y2="20"/>
<line opacity="1" stroke="#FFFFFF" stroke-width="1" x1="319" y1="339" x2="319" y2="20"/>
<line opacity="1" stroke="#FFFFFF" stroke-width="1" x1="324" y1="339" x2="324" y2="20"/>
<line opacity="1" stroke="#FFFFFF" stroke-width="1" x1="329" y1="339" x2="329" y2="20"/>
<line opacity="1" stroke="#FFFFFF" stroke-width="1" x1="335" y1="339" x2="335" y2="20"/>
<line opacity="1" stroke="#FFFFFF" stroke-width="1" x1="340" y1="339" x2="340" y2="20"/>
<line opacity="1" stroke="#FFFFFF" stroke-width="1" x1="345" y1="339" x2="345" y2="20"/>
<line opacity="1" stroke="#FFFFFF" stroke-width="1" x1="350" y1="339" x2="350" y2="20"/>
<line opacity="1" stroke="#FFFFFF" stroke-width="1" x1="355" y1="339" x2="355" y2="20"/>
<line opacity="1" stroke="#FFFFFF" stroke-width="1" x1="361" y1="339" x2="361" y2="20"/>
<line opacity="1" stroke="#FFFFFF" stroke-width="1" x1="366" y1="339" x2="366" y2="20"/>
<line opacity="1" stroke="#FFFFFF" stroke-width="1" x1="371" y1="339" x2="371" y2="20"/>
<line opacity="1" stroke="#FFFFFF" stroke-width="1" x1="376" y1="339" x2="376" y2="20"/>
<line opacity="1" stroke="#FFFFFF" stroke-width="1" x1="381" y1="339" x2="381" y2="20"/>
<line opacity="1" stroke="#FFFFFF" stroke-width="1" x1="386" y1="339" x2="386" y2="20"/>
<line opacity="1" stroke="#FFFFFF" stroke-width="1" x1="392" y1="339" x2="392" y2="20"/>
<line opacity="1" stroke="#FFFFFF" stroke-width="1" x1="397" y1="339" x2="397" y2="20"/>
<line opacity="1" stroke="#FFFFFF" stroke-width="1" x1="402" y1="339" x2="402" y2="20"/>
<line opacity="1" stroke="#FFFFFF" stroke-width="1" x1="407" y1="339" x2="407" y2="20"/>
<line opacity="1" stroke="#FFFFFF" stroke-width="1" x1="412" y1="339" x2="412" y2="20"/>
<line opacity="1" stroke="#FFFFFF" stroke-width="1" x1="418" y1="339" x2="418" y2="20"/>
<line opacity="1" stroke="#FFFFFF" stroke-width="1" x1="423" y1="339" x2="423" y2="20"/>
<line opacity="1" stroke="#FFFFFF" stroke-width="1" x1="428" y1="339" x2="428" y2="20"/>
<line opacity="1" stroke="#FFFFFF" stroke-width="1" x1="433" y1="339" x2="433" y2="20"/>
<line opacity="1" stroke="#FFFFFF" stroke-width="1" x1="438" y1="339" x2="438" y2="20"/>
<line opacity="1" stroke="#FFFFFF" stroke-width="1" x1="444" y1="339" x2="444" y2="20"/>
<line opacity="1" stroke="#FFFFFF" stroke-width="1" x1="449" y1="339" x2="449" y2="20"/>
<line opacity="1" stroke="#FFFFFF" stroke-width="1" x1="454" y1="339" x2="454" y2="20"/>
<line opacity="1" stroke="#FFFFFF" stroke-width="1" x1="459" y1="339" x2="459" y2="20"/>
<line opacity="1" stroke="#FFFFFF" stroke-width="1" x1="464" y1="339" x2="464" y2="20"/>
<line opacity="1" stroke="#FFFFFF" stroke-width="1" x1="470" y1="339" x2="470" y2="20"/>
<line opacity="1" stroke="#FFFFFF" stroke-width="1" x1="475" y1="339" x2="475" y2="20"/>
<line opacity="1" stroke="#FFFFFF" stroke-width="1" x1="480" y1="339" x2="480" y2="20"/>
<line opacity="1" stroke="#FFFFFF" stroke-width="1" x1="485" y1="339" x2="485" y2="20"/>
<line opacity="1" stroke="#FFFFFF" stroke-width="1" x1="490" y1="339" x2="490" y2="20"/>
<line opacity="1" stroke="#FFFFFF" stroke-width="1" x1="495" y1="339" x2="495" y2="20"/>
<line opacity="1" stroke="#FFFFFF" stroke-width="1" x1="501" y1="339" x2="501" y2="20"/>
<line opacity="1" stroke="#FFFFFF" stroke-width="1" x1="506" y1="339" x2="506" y2="20"/>
<line opacity="1" stroke="#FFFFFF" stroke-width="1" x1="511" y1="339" x2="511" y2="20"/>
<line opacity="1" stroke="#FFFFFF" stroke-width="1" x1="516" y1="339" x2="516" y2="20"/>
<line opacity="1" stroke="#FFFFFF" stroke-width="1" x1="521" y1="339" x2="521" y2="20"/>
<line opacity="1" stroke="#FFFFFF" stroke-width="1" x1="527" y1="339" x2="527" y2="20"/>
<line opacity="1" stroke="#FFFFFF" stroke-width="1" x1="532" y1="339" x2="532" y2="20"/>
<line opacity="1" stroke="#FFFFFF" stroke-width="1" x1="537" y1="339" x2="537" y2="20"/>
<line opacity="1" stroke="#FFFFFF" stroke-width="1" x1="542" y1="339" x2="542" y2="20"/>
<line opacity="1" stroke="#FFFFFF" stroke-width="1" x1="547" y1="339" x2="547" y2="20"/>
<line opacity="1" stroke="#FFFFFF" stroke-width="1" x1="553" y1="339" x2="553" y2="20"/>
<line opacity="1" stroke="#FFFFFF" stroke-width="1" x1="558" y1="339" x2="558" y2="20"/>
<line opacity="1" stroke="#FFFFFF" stroke-width="1" x1="563" y1="339" x2="563" y2="20"/>
<line opacity="1" stroke="#FFFFFF" stroke-width="1" x1="568" y1="339" x2="568" y2="20"/>
<line opacity="1" stroke="#FFFFFF" stroke-width="1" x1="573" y1="339" x2="573" y2="20"/>
<line opacity="1" stroke="#FFFFFF" stroke-width="1" x1="60" y1="339" x2="579" y2="339"/>
<line opacity="1" stroke="#FFFFFF" stroke-width="1" x1="60" y1="336" x2="579" y2="336"/>
<line opacity="1" stroke="#FFFFFF" stroke-width="1" x1="60" y1="333" x2="579" y2="333"/>
<line opacity="1" stroke="#FFFFFF" stroke-width="1" x1="60" y1="330" x2="579" y2="330"/>
<line opacity="1" stroke="#FFFFFF" stroke-width="1" x1="60" y1="327" x2="579" y2="327"/>
<line opacity="1" stroke="#FFFFFF" stroke-width="1" x1="60" y1="324" x2="579" y2="324"/>
<line opacity="1" stroke="#FFFFFF" stroke-width="1" x1="60" y1="320" x2="579" y2="320"/>
<line opacity="1" stroke="#FFFFFF" stroke-width="1" x1="60" y1="317" x2="579" y2="317"/>
<line opacity="1" stroke="#FFFFFF" stroke-width="1" x1="60" y1="314" x2="579" y2="314"/>
<line opacity="1" stroke="#FFFFFF" stroke-width="1" x1="60" y1="311" x2="579" y2="311"/>
<line opacity="1" stroke="#FFFFFF" stroke-width="1" x1="60" y1="308" x2="579" y2="308"/>
<line opacity="1" stroke="#FFFFFF" stroke-width="1" x1="60" y1="304" x2="579" y2="304"/>
<line opacity="1" stroke="#FFFFFF" stroke-width="1" x1="60" y1="301" x2="579" y2="301"/>
<line opacity="1" stroke="#FFFFFF" stroke-width="1" x1="60" y1="298" x2="579" y2="298"/>
<line opacity="1" stroke="#FFFFFF" stroke-width="1" x1="60" y1="295" x2="579" y2="295"/>
<line opacity="1" stroke="#FFFFFF" stroke-width="1" x1="60" y1="292" x2="579" y2="292"/>
<line opacity="1" stroke="#FFFFFF" stroke-width="1" x1="60" y1="288" x2="579" y2="288"/>
<line opacity="1" stroke="#FFFFFF" stroke-width="1" x1="60" y1="285" x2="579" y2="285"/>
<line opacity="1" stroke="#FFFFFF" stroke-width="1" x1="60" y1="282" x2="579" y2="282"/>
<line opacity="1" stroke="#FFFFFF" stroke-width="1" x1="60" y1="279" x2="579" y2="279"/>
<line opacity="1" stroke="#FFFFFF" stroke-width="1" x1="60" y1="276" x2="579" y2="276"/>
<line opacity="1" stroke="#FFFFFF" stroke-width="1" x1="60" y1="273" x2="579" y2="273"/>
<line opacity="1" stroke="#FFFFFF" stroke-width="1" x1="60" y1="269" x2="579" y2="269"/>
<line opacity="1" stroke="#FFFFFF" stroke-width="1" x1="60" y1="266" x2="579" y2="266"/>
<line opacity="1" stroke="#FFFFFF" stroke-width="1" x1="60" y1="263" x2="579" y2="263"/>
<line opacity="1" stroke="#FFFFFF" stroke-width="1" x1="60" y1="260" x2="579" y2="260"/>
<line opacity="1" stroke="#FFFFFF" stroke-width="1" x1="60" y1="257" x2="579" y2="257"/>
<line opacity="1" stroke="#FFFFFF" stroke-width="1" x1="60" y1="253" x2="579" y2="253"/>
<line opacity="1" stroke="#FFFFFF" stroke-width="1" x1="60" y1="250" x2="579" y2="250"/>
<line opacity="1" stroke="#FFFFFF" stroke-width="1" x1="60" y1="247" x2="579" y2="247"/>
<line opacity="1" stroke="#FFFFFF" stroke-width="1" x1="60" y1="244" x2="579" y2="244"/>
<line opacity="1" stroke="#FFFFFF" stroke-width="1" x1="60" y1="241" x2="579" y2="241"/>
<line opacity="1" stroke="#FFFFFF" stroke-width="1" x1="60" y1="237" x2="579" y2="237"/>
<line opacity="1" stroke="#FFFFFF" stroke-width="1" x1="60" y1="234" x2="579" y2="234"/>
<line opacity="1" stroke="#FFFFFF" stroke-width="1" x1="60" y1="231" x2="579" y2="231"/>
<line opacity="1" stroke="#FFFFFF" stroke-width="1" x1="60" y1="228" x2="579" y2="228"/>
<line opacity="1" stroke="#FFFFFF" stroke-width="1" x1="60" y1="225" x2="579" y2="225"/>
<line opacity="1" stroke="#FFFFFF" stroke-width="1" x1="60" y1="221" x2="579" y2="221"/>
<line opacity="1" stroke="#FFFFFF" stroke-width="1" x1="60" y1="218" x2="579" y2="218"/>
<line opacity="1" stroke="#FFFFFF" stroke-width="1" x1="60" y1="215" x2="579" y2="215"/>
<line opacity="1" stroke="#FFFFFF" stroke-width="1" x1="60" y1="212" x2="579" y2="212"/>
<line opacity="1" stroke="#FFFFFF" stroke-width="1" x1="60" y1="209" x2="579" y2="209"/>
<line opacity="1" stroke="#FFFFFF" stroke-width="1" x1="60" y1="206" x2="579" y2="206"/>
<line opacity="1" stroke="#FFFFFF" stroke-width="1" x1="60" y1="202" x2="579" y2="202"/>
<line opacity="1" stroke="#FFFFFF" stroke-width="1" x1="60" y1="199" x2="579" y2="199"/>
<line opacity="1" stroke="#FFFFFF" stroke-width="1" x1="60" y1="196" x2="579" y2="196"/>
<line opacity="1" stroke="#FFFFFF" stroke-width="1" x1="60" y1="193" x2="579" y2="193"/>
<line opacity="1" stroke="#FFFFFF" stroke-width="1" x1="60" y1="190" x2="579" y2="190"/>
<line opacity="1" stroke="#FFFFFF" stroke-width="1" x1="60" y1="186" x2="579" y2="186"/>
<line opacity="1" stroke="#FFFFFF" stroke-width="1" x1="60" y1="183" x2="579" y2="183"/>
<line opacity="1" stroke="#FFFFFF" stroke-width="1" x1="60" y1="180" x2="579" y2="180"/>
<line opacity="1" stroke="#FFFFFF" stroke-width="1" x1="60" y1="177" x2="579" y2="177"/>
<line opacity="1" stroke="#FFFFFF" stroke-width="1" x1="60" y1="174" x2="579" y2="174"/>
<line opacity="1" stroke="#FFFFFF" stroke-width="1" x1="60" y1="170" x2="579" y2="170"/>
<line opacity="1" stroke="#FFFFFF" stroke-width="1" x1="60" y1="167" x2="579" y2="167"/>
<line opacity="1" stroke="#FFFFFF" stroke-width="1" x1="60" y1="164" x2="579" y2="164"/>
<line opacity="1" stroke="#FFFFFF" stroke-width="1" x1="60" y1="161" x2="579" y2="161"/>
<line opacity="1" stroke="#FFFFFF" stroke-width="1" x1="60" y1="158" x2="579" y2="158"/>
<line opacity="1" stroke="#FFFFFF" stroke-width="1" x1="60" y1="154" x2="579" y2="154"/>
<line opacity="1" stroke="#FFFFFF" stroke-width="1" x1="60" y1="151" x2="579" y2="151"/>
<line opacity="1" stroke="#FFFFFF" stroke-width="1" x1="60" y1="148" x2="579" y2="148"/>
<line opacity="1" stroke="#FFFFFF" stroke-width="1" x1="60" y1="145" x2="579" y2="145"/>
<line opacity="1" stroke="#FFFFFF" stroke-width="1" x1="60" y1="142" x2="579" y2="142"/>
<line opacity="1" stroke="#FFFFFF" stroke-width="1" x1="60" y1="139" x2="579" y2="139"/>
<line opacity="1" stroke="#FFFFFF" stroke-width="1" x1="60" y1="135" x2="579" y2="135"/>
<line opacity="1" stroke="#FFFFFF" stroke-width="1" x1="60" y1="132" x2="579" y2="132"/>
<line opacity="1" stroke="#FFFFFF" stroke-width="1" x1="60" y1="129" x2="579" y2="129"/>
<line opacity="1" stroke="#FFFFFF" stroke-width="1" x1="60" y1="126" x2="579" y2="126"/>
<line opacity="1" stroke="#FFFFFF" stroke-width="1" x1="60" y1="123" x2="579" y2="123"/>
<line opacity="1" stroke="#FFFFFF" stroke-width="1" x1="60" y1="119" x2="579" y2="119"/>
<line opacity="1" stroke="#FFFFFF" stroke-width="1" x1="60" y1="116" x2="579" y2="116"/>
<line opacity="1" stroke="#FFFFFF" stroke-width="1" x1="60" y1="113" x2="579" y2="113"/>
<line opacity="1" stroke="#FFFFFF" stroke-width="1" x1="60" y1="110" x2="579" y2="110"/>
<line opacity="1" stroke="#FFFFFF" stroke-width="1" x1="60" y1="107" x2="579" y2="107"/>
<line opacity="1" stroke="#FFFFFF" stroke-width="1" x1="60" y1="103" x2="579" y2="103"/>
<line opacity="1" stroke="#FFFFFF" stroke-width="1" x1="60" y1="100" x2="579" y2="100"/>
<line opacity="1" stroke="#FFFFFF" stroke-width="1" x1="60" y1="97" x2="579" y2="97"/>
<line opacity="1" stroke="#FFFFFF" stroke-width="1" x1="60" y1="94" x2="579" y2="94"/>
<line opacity="1" stroke="#FFFFFF" stroke-width="1" x1="60" y1="91" x2="579" y2="91"/>
<line opacity="1" stroke="#FFFFFF" stroke-width="1" x1="60" y1="87" x2="579" y2="87"/>
<line opacity="1" stroke="#FFFFFF" stroke-width="1" x1="60" y1="84" x2="579" y2="84"/>
<line opacity="1" stroke="#FFFFFF" stroke-width="1" x1="60" y1="81" x2="579" y2="81"/>
<line opacity="1" stroke="#FFFFFF" stroke-width="1" x1="60" y1="78" x2="579" y2="78"/>
<line opacity="1" stroke="#FFFFFF" stroke-width="1" x1="60" y1="75" x2="579" y2="75"/>
<line opacity="1" stroke="#FFFFFF" stroke-width="1" x1="60" y1="72" x2="579" y2="72"/>
<line opacity="1" stroke="#FFFFFF" stroke-width="1" x1="60" y1="68" x2="579" y2="68"/>
<line opacity="1" stroke="#FFFFFF" stroke-width="1" x1="60" y1="65" x2="579" y2="65"/>
<line opacity="1" stroke="#FFFFFF" stroke-width="1" x1="60" y1="62" x2="579" y2="62"/>
<line opacity="1" stroke="#FFFFFF" stroke-width="1" x1="60" y1="59" x2="579" y2="59"/>
<line opacity="1" stroke="#FFFFFF" stroke-width="1" x1="60" y1="56" x2="579" y2="56"/>
<line opacity="1" stroke="#FFFFFF" stroke-width="1" x1="60" y1="52" x2="579" y2="52"/>
<line opacity="1" stroke="#FFFFFF" stroke-width="1" x1="60" y1="49" x2="579" y2="49"/>
<line opacity="1" stroke="#FFFFFF" stroke-width="1" x1="60" y1="46" x2="579" y2="46"/>
<line opacity="1" stroke="#FFFFFF" stroke-width="1" x1="60" y1="43" x2="579" y2="43"/>
<line opacity="1" stroke="#FFFFFF" stroke-width="1" x1="60" y1="40" x2="579" y2="40"/>
<line opacity="1" stroke="#FFFFFF" stroke-width="1" x1="60" y1="36" x2="579" y2="36"/>
<line opacity="1" stroke="#FFFFFF" stroke-width="1" x1="60" y1="33" x2="579" y2="33"/>
<line opacity="1" stroke="#FFFFFF" stroke-width="1" x1="60" y1="30" x2="579" y2="30"/>
<line opacity="1" stroke="#FFFFFF" stroke-width="1" x1="60" y1="27" x2="579" y2="27"/>
<line opacity="1" stroke="#FFFFFF" stroke-width="1" x1="60" y1="24" x2="579" y2="24"/>
<text x="20" y="180" dy="0.76em" text-anchor="middle" font-family="serif" font-size="12.096774193548388" opacity="1" fill="#000000" transform="rotate(270, 20, 180)">
Value
</text>
<text x="320" y="380" dy="-0.5ex" text-anchor="middle" font-family="serif" font-size="12.096774193548388" opacity="1" fill="#000000">
Time
</text>
<line opacity="0.2" stroke="#000000" stroke-width="1" x1="60" y1="339" x2="60" y2="20"/>
<line opacity="0.2" stroke="#000000" stroke-width="1" x1="111" y1="339" x2="111" y2="20"/>
<line opacity="0.2" stroke="#000000" stroke-width="1" x1="163" y1="339" x2="163" y2="20"/>
<line opacity="0.2" stroke="#000000" stroke-width="1" x1="215" y1="339" x2="215" y2="20"/>
<line opacity="0.2" stroke="#000000" stroke-width="1" x1="267" y1="339" x2="267" y2="20"/>
<line opacity="0.2" stroke="#000000" stroke-width="1" x1="319" y1="339" x2="319" y2="20"/>
<line opacity="0.2" stroke="#000000" stroke-width="1" x1="371" y1="339" x2="371" y2="20"/>
<line opacity="0.2" stroke="#000000" stroke-width="1" x1="423" y1="339" x2="423" y2="20"/>
<line opacity="0.2" stroke="#000000" stroke-width="1" x1="475" y1="339" x2="475" y2="20"/>
<line opacity="0.2" stroke="#000000" stroke-width="1" x1="527" y1="339" x2="527" y2="20"/>
<line opacity="0.2" stroke="#000000" stroke-width="1" x1="579" y1="339" x2="579" y2="20"/>
<line opacity="0.2" stroke="#000000" stroke-width="1" x1="60" y1="339" x2="579" y2="339"/>
<line opacity="0.2" stroke="#000000" stroke-width="1" x1="60" y1="308" x2="579" y2="308"/>
<line opacity="0.2" stroke="#000000" stroke-width="1" x1="60" y1="276" x2="579" y2="276"/>
<line opacity="0.2" stroke="#000000" stroke-width="1" x1="60" y1="244" x2="579" y2="244"/>
<line opacity="0.2" stroke="#000000" stroke-width="1" x1="60" y1="212" x2="579" y2="212"/>
<line opacity="0.2" stroke="#000000" stroke-width="1" x1="60" y1="180" x2="579" y2="180"/>
<line opacity="0.2" stroke="#000000" stroke-width="1" x1="60" y1="148" x2="579" y2="148"/>
<line opacity="0.2" stroke="#000000" stroke-width="1" x1="60" y1="116" x2="579" y2="116"/>
<line opacity="0.2" stroke="#000000" stroke-width="1" x1="60" y1="84" x2="579" y2="84"/>
<line opacity="0.2" stroke="#000000" stroke-width="1" x1="60" y1="52" x2="579" y2="52"/>
<line opacity="0.2" stroke="#000000" stroke-width="1" x1="60" y1="20" x2="579" y2="20"/>
<polyline fill="none" opacity="1" stroke="#000000" stroke-width="1" points="59,20 59,339 "/>
<text x="50" y="339" dy="0.5ex" text-anchor="end" font-family="sans-serif" font-size="9.67741935483871" opacity="1" fill="#000000">
0.0
</text>
<polyline fill="none" opacity="1" stroke="#000000" stroke-width="1" points="54,339 59,339 "/>
<text x="50" y="308" dy="0.5ex" text-anchor="end" font-family="sans-serif" font-size="9.67741935483871" opacity="1" fill="#000000">
0.1
</text>
<polyline fill="none" opacity="1" stroke="#000000" stroke-width="1" points="54,308 59,308 "/>
<text x="50" y="276" dy="0.5ex" text-anchor="end" font-family="sans-serif" font-size="9.67741935483871" opacity="1" fill="#000000">
0.2
</text>
<polyline fill="none" opacity="1" stroke="#000000" stroke-width="1" points="54,276 59,276 "/>
<text x="50" y="244" dy="0.5ex" text-anchor="end" font-family="sans-serif" font-size="9.67741935483871" opacity="1" fill="#000000">
0.3
</text>
<polyline fill="none" opacity="1" stroke="#000000" stroke-width="1" points="54,244 59,244 "/>
<text x="50" y="212" dy="0.5ex" text-anchor="end" font-family="sans-serif" font-size="9.67741935483871" opacity="1" fill="#000000">
0.4
</text>
<polyline fill="none" opacity="1" stroke="#000000" stroke-width="1" points="54,212 59,212 "/>
<text x="50" y="180" dy="0.5ex" text-anchor="end" font-family="sans-serif" font-size="9.67741935483871" opacity="1" fill="#000000">
0.5
</text>
<polyline fill="none" opacity="1" stroke="#000000" stroke-width="1" points="54,180 59,180 "/>
<text x="50" y="148" dy="0.5ex" text-anchor="end" font-family="sans-serif" font-size="9.67741935483871" opacity="1" fill="#000000">
0.6
</text>
<polyline fill="none" opacity="1" stroke="#000000" stroke-width="1" points="54,148 59,148 "/>
<text x="50" y="116" dy="0.5ex" text-anchor="end" font-family="sans-serif" font-size="9.67741935483871" opacity="1" fill="#000000">
0.7
</text>
<polyline fill="none" opacity="1" stroke="#000000" stroke-width="1" points="54,116 59,116 "/>
<text x="50" y="84" dy="0.5ex" text-anchor="end" font-family="sans-serif" font-size="9.67741935483871" opacity="1" fill="#000000">
0.8
</text>
<polyline fill="none" opacity="1" stroke="#000000" stroke-width="1" points="54,84 59,84 "/>
<text x="50" y="52" dy="0.5ex" text-anchor="end" font-family="sans-serif" font-size="9.67741935483871" opacity="1" fill="#000000">
0.9
</text>
<polyline fill="none" opacity="1" stroke="#000000" stroke-width="1" points="54,52 59,52 "/>
<text x="50" y="20" dy="0.5ex" text-anchor="end" font-family="sans-serif" font-size="9.67741935483871" opacity="1" fill="#000000">
1.0
</text>
<polyline fill="none" opacity="1" stroke="#000000" stroke-width="1" points="54,20 59,20 "/>
<polyline fill="none" opacity="1" stroke="#000000" stroke-width="1" points="60,340 579,340 "/>
<text x="60" y="350" dy="0.76em" text-anchor="middle" font-family="sans-serif" font-size="9.67741935483871" opacity="1" fill="#000000">
0.0
</text>
<polyline fill="none" opacity="1" stroke="#000000" stroke-width="1" points="60,340 60,345 "/>
<text x="111" y="350" dy="0.76em" text-anchor="middle" font-family="sans-serif" font-size="9.67741935483871" opacity="1" fill="#000000">
0.1
</text>
<polyline fill="none" opacity="1" stroke="#000000" stroke-width="1" points="111,340 111,345 "/>
<text x="163" y="350" dy="0.76em" text-anchor="middle" font-family="sans-serif" font-size="9.67741935483871" opacity="1" fill="#000000">
0.2
</text>
<polyline fill="none" opacity="1" stroke="#000000" stroke-width="1" points="163,340 163,345 "/>
<text x="215" y="350" dy="0.76em" text-anchor="middle" font-family="sans-serif" font-size="9.67741935483871" opacity="1" fill="#000000">
0.3
</text>
<polyline fill="none" opacity="1" stroke="#000000" stroke-width="1" points="215,340 215,345 "/>
<text x="267" y="350" dy="0.76em" text-anchor="middle" font-family="sans-serif" font-size="9.67741935483871" opacity="1" fill="#000000">
0.4
</text>
<polyline fill="none" opacity="1" stroke="#000000" stroke-width="1" points="267,340 267,345 "/>
<text x="319" y="350" dy="0.76em" text-anchor="middle" font-family="sans-serif" font-size="9.67741935483871" opacity="1" fill="#000000">
0.5
</text>
<polyline fill="none" opacity="1" stroke="#000000" stroke-width="1" points="319,340 319,345 "/>
<text x="371" y="350" dy="0.76em" text-anchor="middle" font-family="sans-serif" font-size="9.67741935483871" opacity="1" fill="#000000">
0.6
</text>
<polyline fill="none" opacity="1" stroke="#000000" stroke-width="1" points="371,340 371,345 "/>
<text x="423" y="350" dy="0.76em" text-anchor="middle" font-family="sans-serif" font-size="9.67741935483871" opacity="1" fill="#000000">
0.7
</text>
<polyline fill="none" opacity="1" stroke="#000000" stroke-width="1" points="423,340 423,345 "/>
<text x="475" y="350" dy="0.76em" text-anchor="middle" font-family="sans-serif" font-size="9.67741935483871" opacity="1" fill="#000000">
0.8
</text>
<polyline fill="none" opacity="1" stroke="#000000" stroke-width="1" points="475,340 475,345 "/>
<text x="527" y="350" dy="0.76em" text-anchor="middle" font-family="sans-serif" font-size="9.67741935483871" opacity="1" fill="#000000">
0.9
</text>
<polyline fill="none" opacity="1" stroke="#000000" stroke-width="1" points="527,340 527,345 "/>
<text x="579" y="350" dy="0.76em" text-anchor="middle" font-family="sans-serif" font-size="9.67741935483871" opacity="1" fill="#000000">
1.0
</text>
<polyline fill="none" opacity="1" stroke="#000000" stroke-width="1" points="579,340 579,345 "/>
<text x="70" y="303" dy="0.76em" text-anchor="start" font-family="serif" font-size="16.129032258064516" opacity="1" fill="#000000" font-weight="bold">
n1
</text>
<polyline fill="none" opacity="1" stroke="#000000" stroke-width="1" points="60,308 163,260 267,233 371,219 475,211 579,207 "/>
<circle cx="60" cy="308" r="3" opacity="1" fill="#000000" stroke="none" stroke-width="1"/>
<circle cx="163" cy="260" r="3" opacity="1" fill="#000000" stroke="none" stroke-width="1"/>
<circle cx="267" cy="233" r="3" opacity="1" fill="#000000" stroke="none" stroke-width="1"/>
<circle cx="371" cy="219" r="3" opacity="1" fill="#000000" stroke="none" stroke-width="1"/>
<circle cx="475" cy="211" r="3" opacity="1" fill="#000000" stroke="none" stroke-width="1"/>
<circle cx="579" cy="207" r="3" opacity="1" fill="#000000" stroke="none" stroke-width="1"/>
<text x="70" y="239" dy="0.76em" text-anchor="start" font-family="serif" font-size="16.129032258064516" opacity="1" fill="#000000" font-weight="bold">
n2
</text>
<polyline fill="none" opacity="1" stroke="#000000" stroke-width="1" points="60,244 163,225 267,214 371,208 475,205 579,203 "/>
<circle cx="60" cy="244" r="3" opacity="1" fill="#000000" stroke="none" stroke-width="1"/>
<circle cx="163" cy="225" r="3" opacity="1" fill="#000000" stroke="none" stroke-width="1"/>
<circle cx="267" cy="214" r="3" opacity="1" fill="#000000" stroke="none" stroke-width="1"/>
<circle cx="371" cy="208" r="3" opacity="1" fill="#000000" stroke="none" stroke-width="1"/>
<circle cx="475" cy="205" r="3" opacity="1" fill="#000000" stroke="none" stroke-width="1"/>
<circle cx="579" cy="203" r="3" opacity="1" fill="#000000" stroke="none" stroke-width="1"/>
<text x="70" y="47" dy="0.76em" text-anchor="start" font-family="serif" font-size="16.129032258064516" opacity="1" fill="#000000" font-weight="bold">
n3
</text>
<polyline fill="none" opacity="1" stroke="#000000" stroke-width="1" points="60,52 163,119 267,156 371,177 475,188 579,194 "/>
<circle cx="60" cy="52" r="3" opacity="1" fill="#000000" stroke="none" stroke-width="1"/>
<circle cx="163" cy="119" r="3" opacity="1" fill="#000000" stroke="none" stroke-width="1"/>
<circle cx="267" cy="156" r="3" opacity="1" fill="#000000" stroke="none" stroke-width="1"/>
<circle cx="371" cy="177" r="3" opacity="1" fill="#000000" stroke="none" stroke-width="1"/>
<circle cx="475" cy="188" r="3" opacity="1" fill="#000000" stroke="none" stroke-width="1"/>
<circle cx="579" cy="194" r="3" opacity="1" fill="#000000" stroke="none" stroke-width="1"/>
</svg>
